# xmcd
# 
# Track frame offsets:
#     187
#     13325
#     23912
#     35575
#     53137
#     66450
#     80362
#     97400
#     112575
#     131475
#     146575
#     156400
#     170887
#     188162
#     213975
#     232687
#     255975
# 
# Disc length: 3555
# 
# Revision: 2
# Processed by: cddbd v1.5.2PL0 Copyright (c) Steve Scherf et al.
# Submitted via: fre:ac v1.0.31
# 
DISCID=ec0de111
DTITLE=Various Artist - Saude! Saudade... Brasilidade ~Azul
DYEAR=1997
DGENRE=World Music
TTITLE0=ANTONIO CARLOS JOBIM - WAVE
TTITLE1=ASTRUD GILBERTO - AGUA DE BEBER
TTITLE2=TAMBA 4 - WE AND THE SEA(NOS E O MAR)
TTITLE3=WALTER WANDERLEY - BEACH SAMBA(BOSSA NA PRAIA)
TTITLE4=SERGIO MENDES and BRASIL '66 - UPA, NEGUINHO
TTITLE5=EDU LOBO - PONTEIO
TTITLE6=PAUL DESMOND - CIRCLES
TTITLE7=LUIS BONFA - MANHA DE CARNAVAL
TTITLE8=STAN GETZ, LUIS BONFA, MARIA TOLEDO - MENINA FLOR
TTITLE9=BADEN POWELL - TRISTEZA
TTITLE10=MARCOS VALLE - CRICKETS SING FOR ANAMARIA
TTITLE11=MILTON NASCIMENTO - VERA CRUZ
TTITLE12=RICARDO SILVEIRA - SUN AND RAIN
TTITLE13=JOYCE - CAYMMIS
TTITLE14=TONINHO HORTA - BROKEN KISS
TTITLE15=JOAO GILBERTO - E PRECISO PERDOAR
TTITLE16=ANTONIO CARLOS JOBIM - CORCOVADO
EXTD=
EXTT0=
EXTT1=
EXTT2=
EXTT3=
EXTT4=
EXTT5=
EXTT6=
EXTT7=
EXTT8=
EXTT9=
EXTT10=
EXTT11=
EXTT12=
EXTT13=
EXTT14=
EXTT15=
EXTT16=
PLAYORDER=
